<?xml version="1.0" encoding="UTF-8"?>
<svg id="Layer_2" data-name="Layer 2" xmlns="http://www.w3.org/2000/svg" viewBox="0 0 672.94 225.66">
  <defs>
    <style>
      .cls-1 {
        fill: #369798;
      }

      .cls-1, .cls-2, .cls-3, .cls-4, .cls-5, .cls-6, .cls-7, .cls-8, .cls-9, .cls-10, .cls-11, .cls-12, .cls-13, .cls-14, .cls-15, .cls-16, .cls-17, .cls-18, .cls-19, .cls-20, .cls-21, .cls-22, .cls-23, .cls-24, .cls-25, .cls-26, .cls-27, .cls-28, .cls-29, .cls-30, .cls-31, .cls-32, .cls-33, .cls-34, .cls-35, .cls-36, .cls-37, .cls-38, .cls-39, .cls-40, .cls-41, .cls-42, .cls-43, .cls-44 {
        stroke-width: 0px;
      }

      .cls-2 {
        fill: #292f42;
      }

      .cls-3 {
        fill: #373e4e;
      }

      .cls-4 {
        fill: #c4b298;
      }

      .cls-5 {
        fill: #2a3138;
      }

      .cls-6 {
        fill: #d5e5e1;
      }

      .cls-7 {
        fill: #323f49;
      }

      .cls-8 {
        fill: #347d86;
      }

      .cls-9 {
        fill: #3a2b2c;
      }

      .cls-10 {
        fill: #b5885e;
      }

      .cls-11 {
        fill: #e3dcc0;
      }

      .cls-12 {
        fill: #c9bfb7;
      }

      .cls-13 {
        fill: #72544b;
      }

      .cls-14 {
        fill: #fbce9d;
      }

      .cls-15 {
        fill: #f8f7f2;
      }

      .cls-16 {
        fill: #2f4852;
      }

      .cls-17 {
        fill: #b09579;
      }

      .cls-18 {
        fill: #313734;
      }

      .cls-19 {
        fill: #262425;
      }

      .cls-20 {
        fill: #44574d;
      }

      .cls-21 {
        fill: #1a323b;
      }

      .cls-22 {
        fill: #705746;
      }

      .cls-23 {
        fill: #8b7558;
      }

      .cls-24 {
        fill: #5d4547;
      }

      .cls-25 {
        fill: #e7cba7;
      }

      .cls-26 {
        fill: #44b4b0;
      }

      .cls-27 {
        fill: #96aa9e;
      }

      .cls-28 {
        fill: #a99a72;
      }

      .cls-29 {
        fill: #5a5d4c;
      }

      .cls-30 {
        fill: #fbe3be;
      }

      .cls-31 {
        fill: #4b7075;
      }

      .cls-32 {
        fill: #ddb082;
      }

      .cls-33 {
        fill: #5e5645;
      }

      .cls-34 {
        fill: #2e2032;
      }

      .cls-35 {
        fill: #2a605f;
      }

      .cls-36 {
        fill: #786953;
      }

      .cls-37 {
        fill: #b7e0d3;
      }

      .cls-38 {
        fill: #6d7571;
      }

      .cls-39 {
        fill: #99795f;
      }

      .cls-40 {
        fill: #908878;
      }

      .cls-41 {
        fill: #9a9b9b;
      }

      .cls-42 {
        fill: #a36f47;
      }

      .cls-43 {
        fill: #bf9d71;
      }

      .cls-44 {
        fill: #22212c;
      }
    </style>
  </defs>
  <g id="Layer_1-2" data-name="Layer 1">
    <g>
      <g>
        <path class="cls-35" d="M112.2,221.79l-.87.7,46.97.35c.05.6,1.13,1.81,0,2.44-35.96-.13-71.94-.81-107.9-.35-.33-1.08-.49-1.63-.35-2.79,4.37.64,8.87.34,13.27.35,16.31.02,32.6-.69,48.89-.7Z"/>
        <path class="cls-30" d="M124.07,154.74c.5,2.35,1.51,3.83.7,6.29-10.43.15-20.82.32-31.25.35-1.82,0-6.58,1.03-8.03.7-.57-.13-.47-1.04-.52-1.05-.2-2.37,1.01-4.5,2.44-6.29,12.22.06,24.45.08,36.66,0Z"/>
        <path class="cls-30" d="M158.29,220.04c-.17,1.21.35.99.35,1.05,0,.3-.41.34-.35,1.05-15.36.94-30.74-.35-46.09-.35-16.29,0-32.58.71-48.89.7-.27-2.43-7.92.42-7.68-2.79,23.06-1.05,76.85-.08,102.66.35Z"/>
        <path class="cls-14" d="M55.63,219.69c-.24,3.22,7.41.36,7.68,2.79-4.4,0-8.89.29-13.27-.35.08-.62-.05-1.29,0-1.92.5-.83,4.44-.47,5.59-.52Z"/>
        <path class="cls-18" d="M158.29,222.14c.02.23-.02.47,0,.7l-46.97-.35.87-.7c15.35,0,30.73,1.29,46.09.35Z"/>
        <g>
          <path class="cls-21" d="M84.96,161.03c.06,0-.05.92.52,1.05,1.45.33,6.22-.69,8.03-.7,10.43-.03,20.82-.2,31.25-.35,2.88-.04,6.03-.65,8.9-.7,11.24-.18,22.48.57,33.7.35,1.25-.02,3.41,1.05,6.63-.35,9.01,2.28,9.16-3.16,15.71,5.94.19.27,2.57,4.16,3.49,5.59,1.67,2.6,13.51,22.61,13.97,23.92,1.45,4.12,2.15,14.66.35,18.51-4.12,8.81-22.6,4.05-25.67,5.41-1.16.52-.06,5.13-.7,5.59-.93.66-20,.01-22.87,0,1.13-.63.05-1.85,0-2.44-.02-.23.02-.47,0-.7-.06-.71.35-.75.35-1.05q9.6-.26,19.21-.52c0-.98-17.98-.5-19.55-.52-25.81-.43-79.61-1.4-102.66-.35-1.15.05-5.08-.31-5.59.52-.05.63.08,1.3,0,1.92-.14,1.16.01,1.71.35,2.79-2.89.04-22.35,1.49-23.05.17-.41-.78.64-4.89-.52-5.41-3.72-1.65-24.84,4.95-26.71-9.6-.3-2.32.06-11.05.7-13.27.39-1.36,12.72-21.25,14.67-24.27,1.53-2.38,3.51-5.81,3.84-6.29,4.61-6.71,3.94-5.12,15.71-5.59,2.34-.09,5.65.09,8.38,0,13.82-.43,27.78-.87,41.55.35Z"/>
          <path class="cls-30" d="M197.4,200.14c.57,3-1.53,4.06-4.02,5.24H15.3c-3.14-1.12-3.78-2.52-3.32-5.59l2.62,1.4c50.96-.26,101.99.84,152.95.35,9.85-.09,20.23.1,29.86-1.4Z"/>
          <path class="cls-8" d="M4.82,209.57l3.14,1.75c64.75.14,129.55-.24,194.32.17q-2.53.79-5.06,1.57H10.76c-2.24-.66-4.89-1.08-5.94-3.49Z"/>
          <path class="cls-1" d="M158.64,221.09c0-.06-.52.16-.35-1.05,1.57.03,19.55-.45,19.55.52q-9.6.26-19.21.52Z"/>
          <path class="cls-1" d="M32.41,220.04c23.27-.47,21.81,1.7-.35,1.05l.35-1.05Z"/>
          <g>
            <path class="cls-30" d="M197.4,200.14c-9.62,1.5-20.01,1.3-29.86,1.4-50.96.49-101.99-.61-152.95-.35l-2.62-1.4c.88-5.91,14.66-25.18,17.63-32.82h150.15c2.25,8.23,16.93,29.45,17.63,33.17Z"/>
            <g>
              <path class="cls-21" d="M169.81,191.06c.32,1.96,7.9,1.49,10.13,1.05-.03.65,0,.78.7.7-2.39,3.98-9.27,3.17-12.05,0,.27,3.31-10.67,2.75-11.52,2.44-.63-.22-.81-1.67-.87-1.75-.29-1.23.66-.92.7-1.4,2.73.32,7.86-.17,6.29-2.79.88-.2,2.14-.67,2.79-1.4,2.36,3.15,1.73,4.96,3.84,3.14Z"/>
              <path class="cls-5" d="M43.06,189.66c-1.32-.44-.43,2.66-.17,2.79,2.85-.07,7.71.41,8.9-2.1l1.05,1.05c-2.08,1.24-.47,1.63-1.05,2.97-.46,1.06-11.16,2.33-11.87-1.92.12-.17.28-1.03,1.75-3.84-.04.41,1.31,1.03,1.4,1.05Z"/>
              <path class="cls-15" d="M96.13,177.79c-1.39-.11-7.29-.64-7.68.87,0,3.14,9.77,2.81,11.35,2.27.6-.21.48-1.01.52-1.05,10.74,3.4,12.41.41,13.09.35,2.04-.17,5.81.74,6.11.7.13,2.92,7.59,1.82,7.33-1.05,2.48-.39,2.08.81,2.62,1.05,3.18,1.44,6.96.6,10.3-.35.95-.27-.6-1.1,1.4-.7.04,0,.23.65.52.7.92.17,2.22-.16,3.14,0,.07.01.38.95,1.05,1.05,3.06.46,7.7-.23,8.03,0,.39.27-.02,1.38.35,1.4.33.02-1.41-2.06,5.41-2.44,0,.17,1.07,2.33-.17,3.49-12.25-1.01-24.55-.41-36.84-.35-1.55,0-2.98.35-4.54.35-13.98.04-27.93-.56-41.9-.7-14.39-.14-28.74-.26-43.12.35-.7-.49.33-2.51.52-3.14.45-2.06,3.42,3.03,10.3,1.4.64-.15-1.82-1.43,4.71-1.4,5.11.03,12.48,2.61,12.92-1.4.45.16.6.55,1.05.7,3.7,1.24,4.35,1.05,8.03,1.05,0,.23.1.6-.17.7-1.35.47-6.16.2,3.14,1.05.68-1.29.14-1.67.17-1.75,1.5-3.22.7-.87,8.03.7-5.6,1.09,3.39.25,4.71.7l.52-1.05c1.93-.75-2.2-5.33-.52-6.29,6.59-1,5.43-.48,9.6,2.79Z"/>
              <path class="cls-44" d="M124.77,177.79l-3.84.17c1.65.11,3.16.7,3.84-.17.02-.02.17.14.35-.35,1.4.45.98.96,1.05,1.05.41.59.75.08.7,1.4.25,2.87-7.2,3.97-7.33,1.05.96-.12.47-.69,1.75-.87-2.1-.77-4.52.02-4.54-2.62,3.8-.92,4.1,2.92,3.84-2.79.25,0-1.09-1.25,4.36-.35q-.09,1.75-.17,3.49Z"/>
              <path class="cls-2" d="M96.13,177.79c.79.06,3.01.24,3.49.35.69.16,1.14.15,1.05,1.05-.55.42-.32.67-.35.7-.05.04.08.84-.52,1.05-1.58.54-11.35.87-11.35-2.27.39-1.51,6.29-.98,7.68-.87Z"/>
              <path class="cls-15" d="M120.58,174.65c.26,5.71-.04,1.87-3.84,2.79-2.81.68-.12,1.97-3.67,1.4-3.02-6.66,3.57-4.23,7.51-4.19Z"/>
              <path class="cls-15" d="M140.83,178.14c-1.69.09-1.39-1.54-2.1.35-3.18-6.75,9.77-5.17,7.16-.7-1.72-.48-3.42.26-5.06.35Z"/>
              <path class="cls-15" d="M74.14,178.14q-.17-1.22-.35-2.44c.41-.07-.12-2.75,7.68-.87q-.09,1.31-.17,2.62c-4.96,1.13-5.29.31-5.59.35-.33.04-.02,1.03-.35,1.05-.07,0-1.15-.7-1.22-.7Z"/>
              <path class="cls-15" d="M126.16,178.49c-.06-.09.35-.6-1.05-1.05.88-2.34-1.58-4.54,8.03-2.27,1.66,4.76-1.92,1.12-6.98,3.32Z"/>
              <path class="cls-15" d="M69.25,176.04c-1.23.32-5.67,1.18-6.29,1.75-.96,1.01-1.06,1.33.35,1.57l-.7.52c-.45-.15-.6-.54-1.05-.7-.07-.02-.37-.9-1.05-1.05.14-1.35-.48-3.13.7-3.49,3.28-.75,5.37-.64,8.03,1.4Z"/>
              <path class="cls-28" d="M73.79,180.93c-.04.08.5.46-.17,1.75-9.31-.85-4.49-.57-3.14-1.05.27-.1.17-.47.17-.7h3.14Z"/>
              <g>
                <path class="cls-44" d="M163.18,172.2c-.3,2.03.6,1.65.7,2.1.02.11-.03.24,0,.35-2.29-.35,0,2.2-.35,2.97-.66,1.42-3.59-1.53-3.84,2.97-6.83.38-5.08,2.46-5.41,2.44-.37-.02.04-1.12-.35-1.4-.33-.23-4.97.46-8.03,0-.67-.1-.97-1.03-1.05-1.05-.92-.16-2.23.17-3.14,0-.29-.05-.48-.69-.52-.7l-.35-1.75c1.64-.09,3.34-.83,5.06-.35,2.62-4.47-10.34-6.05-7.16.7.05.11,1.03,1.08,1.05,2.1-3.34.94-7.12,1.79-10.3.35-.54-.24-.14-1.43-2.62-1.05.06-1.31-.28-.8-.7-1.4,5.06-2.2,8.64,1.44,6.98-3.32-9.61-2.27-7.16-.07-8.03,2.27-.18.49-.33.33-.35.35q.09-1.75.17-3.49c-5.46-.9-4.12.35-4.36.35-3.93-.04-10.53-2.47-7.51,4.19,3.54.58.86-.72,3.67-1.4.02,2.64,2.44,1.85,4.54,2.62-1.28.18-.79.75-1.75.87-.31.04-4.07-.87-6.11-.7-.69.06-2.36,3.06-13.09-.35.03-.02-.2-.28.35-.7,2.85-2.18,3.05-1.91,6.63-1.4.22.03-.85,1.27,3.84.52l-.52-3.32c-4.91-.72-3.09.34-3.32.35-3.49.2-6.81-.26-.87-1.05-4.39.25-6.9-1.41-6.81,3.84-.48-.11-2.7-.29-3.49-.35-4.17-3.27-3.01-3.79-9.6-2.79-1.67.96,2.45,5.53.52,6.29-1.76-.24-3.5.01-5.24.35-7.33-1.57-6.53-3.92-8.03-.7h-3.14c-3.68,0-4.33.19-8.03-1.05l.7-.52c-1.41-.24-1.31-.56-.35-1.57,3.75.32,7.4.4,11.17.35.07,0,1.15.7,1.22.7.32-.02.02-1.01.35-1.05.3-.04.63.78,5.59-.35q.09-1.31.17-2.62c-7.8-1.87-7.27.8-7.68.87-1.15.21-2.45-.2-4.54.35-2.66-2.03-4.75-2.15-8.03-1.4-2.23.51-1.09,1.05-2.27,1.4-1.63.48-2.96-1.37-3.14-1.4-1.64-.23-8.2.04-11.35,0l1.22-.7-6.63-.7,2.27-.7c4.14.12,8.51,1.08,12.4,1.05.1,0,.8-1.04,1.75-1.05,8.49-.08,17.01-.31,25.49-.35,3.46-.02,7.61.72,11.87.7,23.42-.14,46.95-1.19,70.36-.7Z"/>
                <g>
                  <path class="cls-15" d="M151.48,173.95c10.7.11,7.74,1.57,5.06,4.36-.25.26,1.27,2.38-1.92-.52-4.44,2.76-5.27-3.07-3.14-3.84Z"/>
                  <path class="cls-15" d="M107.31,175.35v2.44c-3.59-.51-3.79-.79-6.63,1.4.09-.9-.36-.89-1.05-1.05-.09-5.25,2.42-3.59,6.81-3.84-5.93.78-2.61,1.25.87,1.05Z"/>
                  <path class="cls-16" d="M73.79,175.69q.17,1.22.35,2.44c-3.77.05-7.42-.03-11.17-.35.62-.56,5.05-1.42,6.29-1.75,2.09-.55,3.39-.14,4.54-.35Z"/>
                  <path class="cls-44" d="M107.31,177.79v-2.44c.23-.01-1.6-1.06,3.32-.35l.52,3.32c-4.69.75-3.62-.49-3.84-.52Z"/>
                  <path class="cls-19" d="M146.59,178.14h4.19c1.89,2.67-6.86,2.5-4.19,0Z"/>
                  <path class="cls-40" d="M87.06,181.28l-.52,1.05c-1.33-.45-10.31.39-4.71-.7,1.74-.34,3.47-.59,5.24-.35Z"/>
                  <path class="cls-40" d="M140.83,178.14l.35,1.75c-2-.4-.44.43-1.4.7-.02-1.01-1-1.99-1.05-2.1.71-1.89.4-.26,2.1-.35Z"/>
                  <path class="cls-12" d="M129.48,172.9h.35l.17.17v.35l-.17.17-.17-.17-.17-.17-.17-.17.17-.17Z"/>
                </g>
              </g>
              <path class="cls-5" d="M122.67,183.73c.16,1.23-.52.67-1.05,2.1-6.52-1.77-8.88,1.77-5.59,3.14,2.05.85,18.28.7,22.17.7.18,0,.82-.7.87-.7,1.42,0,4.67,1.4,6.46,1.4.31,0,.04-1.04.35-1.05,3.13-.06,2.82.36,2.97.35-.75,1.47,1.34,2.13,1.4,2.27.17.42-.41.57-.35.87-13.74-.63-27.46-.66-41.2-.7l.35-2.1c9.85-.4,3.62-.56,5.59-4.02,1.09-1.91,3.81-.61,3.49-1.92,1.56,0,2.99-.34,4.54-.35Z"/>
              <path class="cls-16" d="M109.05,190.01l-.35,2.1c-13.27-.04-26.55.43-39.81.35-1.95-.51-3.43-.73-.7-1.75,1.97-.73,7.24-.28,9.78-.35,10.34-.3,20.76.07,31.08-.35Z"/>
              <path class="cls-15" d="M66.45,189.31c-8.25,2.44-6.8-.48-7.16-.7-.16-.1-3.3-.19-3.67.35-.44-5.94,4.5-4.04,13.09-3.14,1.25,3.99-.99,3.11-2.27,3.49Z"/>
              <path class="cls-15" d="M51.79,189.66c-2.81.02-5.96.57-8.73,0-.09-.02-1.44-.64-1.4-1.05,1.02-1.96-1.54-4.55,10.65-3.84.86.35-.21,3.9-.52,4.89Z"/>
              <path class="cls-15" d="M76.58,184.77c5.57-.16,9.18,3.8,1.4,4.19-7.43.37-6.8-4.04-1.4-4.19Z"/>
              <path class="cls-5" d="M66.45,189.31c-.28,1.93,1.03-.22,1.75,1.4-2.73,1.02-1.25,1.24.7,1.75-4.9-.03-10.95.73-13.27-1.22,1.32-1.84.05-1.63,0-2.27.37-.54,3.51-.44,3.67-.35.36.22-1.09,3.13,7.16.7Z"/>
              <g>
                <path class="cls-44" d="M41.31,172.55l-2.27.7,6.63.7-1.22.7c-1.05-.01-2.55-.16-3.49.35-1.24-.32-4.21-.71-5.24,0-1,.69-.97,4.15-1.05,4.36-.16.44-.48-.64-1.05,1.22-.19.63-1.23,2.65-.52,3.14,14.38-.61,28.73-.49,43.12-.35l.35,1.4c-5.4.15-6.03,4.57,1.4,4.19v1.4c-2.54.07-7.8-.38-9.78.35-.72-1.62-2.03.54-1.75-1.4,1.28-.38,3.52.5,2.27-3.49-8.59-.9-13.53-2.79-13.09,3.14.05.64,1.32.43,0,2.27,2.31,1.95,8.37,1.19,13.27,1.22,13.26.08,26.54-.39,39.81-.35,13.75.04,27.47.07,41.2.7.1.46.76.73,0,1.75-1.3.79-7.37,1.1-8.9.7-1.12-.29-1.41-1.69-1.75-1.75-.14-.03-1.76,1.33-2.44,1.4-3.25.31-62.13.79-65.3,0-2.09-.52-1.91-3.97-3.49,0-17.51,2.85-10.43-6.34-15.19-3.49l-1.05-1.05c.06-.13-.06-.51,0-.7.31-.99,1.38-4.54.52-4.89-12.19-.71-9.63,1.88-10.65,3.84-1.47,2.81-1.63,3.67-1.75,3.84-3.36,4.85-13.08,4.12-12.22-3.32.09-.79,5.8-14.03,6.29-14.67,2.45-3.23,4.14-2.01,7.33-1.92Z"/>
                <path class="cls-15" d="M38.87,187.92c-2.05,1.87-2.19,1.03-2.44,1.05-6.05.49-6.97.28-4.36-3.14,7.16-.64,7.48-.61,6.81,2.1Z"/>
                <path class="cls-7" d="M36.42,188.96c.25-.02.4.82,2.44-1.05-.56,2.25-2.86,2.1,0,3.32,1.33,2.2-6.11.81-9.6,1.92-3.42-4.75,8.53-.58,7.16-4.19Z"/>
              </g>
              <path class="cls-5" d="M43.06,189.66c2.77.57,5.92.02,8.73,0-.06.19.06.57,0,.7-1.19,2.51-6.06,2.03-8.9,2.1-.26-.14-1.15-3.23.17-2.79Z"/>
              <path class="cls-15" d="M40.96,175c1.22.32,2.94-.29,1.75,2.44-4.25-1.24-3.1.45-5.59.35-2.71-.11-1.25-.66-1.4-2.79,1.03-.71,4-.32,5.24,0Z"/>
              <path class="cls-15" d="M148.86,189.66c-.15.01.17-.41-2.97-.35-.31,0-.04,1.05-.35,1.05-1.79,0-5.04-1.4-6.46-1.4q-.17-1.13-.35-2.27c9.78-4.93,21.78,1.97,10.13,2.97Z"/>
              <path class="cls-15" d="M165.97,187.92c-.65.72-1.91,1.19-2.79,1.4-.48.11-.74.69-.87.7-.29.02-4.47-1.45-5.76-1.05.01-1.15-1.01-2.43.17-3.49,2.88.75,7.64.24,8.03.35,1.08.29,1.15,2,1.22,2.1Z"/>
              <path class="cls-21" d="M179.94,192.11c-2.23.44-9.81.91-10.13-1.05.08-.07.24-1.43,1.22-1.75,1.88-.61,7.46,1.57,8.73-.35.84,1.78.19,2.8.17,3.14Z"/>
              <path class="cls-15" d="M121.63,185.82c-.49,1.33,1.1,3.15-5.59,3.14-3.29-1.37-.93-4.91,5.59-3.14Z"/>
              <g>
                <path class="cls-44" d="M180.64,192.8c-.69.09-.73-.05-.7-.7.02-.35.67-1.36-.17-3.14-1.27,1.92-6.85-.26-8.73.35-.99.32-1.14,1.68-1.22,1.75-2.11,1.82-1.48,0-3.84-3.14-.07-.1-.14-1.8-1.22-2.1-.39-.11-5.15.4-8.03-.35-1.19,1.07-.16,2.34-.17,3.49-.04,3.29.36,2.99.35,3.14-.04.47-.99.16-.7,1.4-4.94-5.33-4.09-.28-6.29,1.05.76-1.02.1-1.29,0-1.75-.06-.3.52-.45.35-.87-.05-.14-2.14-.8-1.4-2.27,11.65-.99-.34-7.9-10.13-2.97q.17,1.13.35,2.27c-.06,0-.69.7-.87.7-3.89,0-20.12.15-22.17-.7,6.69,0,5.1-1.81,5.59-3.14.52-1.42,1.21-.87,1.05-2.1,12.29-.06,24.59-.66,36.84.35,1.24-1.16.16-3.32.17-3.49.26-4.5,3.18-1.55,3.84-2.97.36-.76-1.95-3.32.35-2.97.11.47.86,4.87,1.57,4.89.28,0-1.92-1.24,4.54-1.75.27-.02.08-.68.35-.7.17,0,.02,1.44,2.97.52,1.28-4.31-6.44-3.85-9.43-3.32-.1-.45-1-.07-.7-2.1,2.41.05,9.07-.23,9.95,0,1.38.36,8.43,16.65,8.56,17.63.19,1.47-.39,1.87-1.05,2.97Z"/>
                <path class="cls-15" d="M163.88,174.65c-.03-.11.02-.24,0-.35,2.98-.53,10.71-.99,9.43,3.32-2.95.92-2.8-.53-2.97-.52-.27.01-.08.68-.35.7-6.46.5-4.26,1.75-4.54,1.75-.72-.02-1.46-4.42-1.57-4.89Z"/>
                <path class="cls-15" d="M127.39,185.47q4.02.17,8.03.35c3.82,4.49-12.72,4.33-8.03-.35Z"/>
                <path class="cls-15" d="M171.04,185.47c2.26-.6,7.78-.18,6.81,3.32-10.95,1.64-9.26-2.67-6.81-3.32Z"/>
                <path class="cls-15" d="M174.18,180.58c2.38-.17,1.86,3.37,1.4,3.49-2.36-1.14-9.23,1.19-6.98-2.79,3.78.19,5.3-.68,5.59-.7Z"/>
              </g>
              <path class="cls-7" d="M163.18,189.31c1.57,2.62-3.56,3.12-6.29,2.79.01-.16-.39.15-.35-3.14,1.29-.41,5.47,1.07,5.76,1.05.13-.01.39-.59.87-.7Z"/>
              <path class="cls-19" d="M60.52,178.14c.67.15.98,1.02,1.05,1.05-.44,4.01-7.81,1.42-12.92,1.4-1.94-2.63,11.22-2.59,11.87-2.44Z"/>
              <g>
                <path class="cls-5" d="M61.22,174.65c-1.18.37-.56,2.15-.7,3.49-.66-.15-13.81-.19-11.87,2.44-6.53-.03-4.07,1.24-4.71,1.4-6.88,1.63-9.85-3.46-10.3-1.4.57-1.86.89-.78,1.05-1.22.08-.21.05-3.67,1.05-4.36.15,2.14-1.32,2.68,1.4,2.79q.26,1.57.52,3.14c.61-1.42,2.77-.39,6.11-2.62.17-1.28-.47-.7-1.05-.87,1.2-2.74-.53-2.13-1.75-2.44.94-.51,2.44-.36,3.49-.35,3.15.04,9.71-.23,11.35,0,.18.03,1.51,1.88,3.14,1.4,1.18-.35.04-.89,2.27-1.4Z"/>
                <path class="cls-15" d="M47.77,175h5.94c2.01,4-1.21,2-4.54,2.44-.3.04-3.44,3.67-1.4-2.44Z"/>
              </g>
              <path class="cls-44" d="M42.71,177.44c.57.17,1.22-.41,1.05.87-3.34,2.23-5.5,1.2-6.11,2.62q-.26-1.57-.52-3.14c2.49.1,1.34-1.59,5.59-.35Z"/>
              <path class="cls-41" d="M124.77,177.79c-.68.88-2.19.29-3.84.17l3.84-.17Z"/>
              <g>
                <path class="cls-44" d="M118.13,184.07c.32,1.31-2.41.02-3.49,1.92-1.97,3.45,4.27,3.62-5.59,4.02-10.31.42-20.74.05-31.08.35v-1.4c7.78-.39,4.17-4.35-1.4-4.19l-.35-1.4c13.97.14,27.92.74,41.9.7Z"/>
                <path class="cls-15" d="M101.9,185.82c14.18-1.13,9.57,4.24-.87,1.92l.87-1.92Z"/>
                <path class="cls-15" d="M86.88,185.47c6.72,1.03,8.56-1.36,7.86,2.27-5.59.24-9.12,2.8-7.86-2.27Z"/>
              </g>
            </g>
          </g>
        </g>
        <g>
          <path class="cls-44" d="M61.91.4C84.26,0,125.35-.25,146.77.4c2.34.07,4.63.54,6.98.35,2.29.48,4.66.51,6.98.35,1.19.6,14.29,2.09,16.76,14.32.45,2.25.19,4.74.35,6.98.12,1.64.34,2.65.35,2.79.32,6.59-.12,13.29,0,19.9.03,1.74-.03,3.49,0,5.24.26,16.58.55,33.18.35,49.76-.07,5.98-1.15,13.67,0,19.38-.07.57-.26,1.04-.35,2.1-.49,6.06.67,15.12-.35,20.95-.1.56-.54,2.36-.7,2.79-1.19,3.29-6.8,8.51-10.3,9.08-4.58.75-34.13.29-42.78.35-12.22.08-24.45.06-36.66,0-6.84-.03-43.27.11-45.57-.35-2.71-.55-5.75-3.52-7.86-5.24-2.6-3.29-3.35-6.92-3.84-7.68.31-6.17-.27-12.35-.35-18.51-.02-1.37.02-2.79,0-4.19-.25-22.91-.14-45.88,0-68.79.01-2.08-.37-4.28-.35-6.29.04-5.43.19-10.98.35-16.41.05-1.74-.1-3.5,0-5.24.11-2-.11-5.12.35-6.98.67-2.76,5.17-8.76,7.51-10.48,4.56-3.36,7.61-2.38,11-3.84,2.44-.05,4.89.06,7.33,0,2-.05,3.96-.31,5.94-.35Z"/>
          <path class="cls-30" d="M50.91,4.24h102.31c10.25.8,19.75,3.44,21.13,15.19,1.63,13.88-1.22,93.23.35,115.93-1.04,9.99-3.85,15.31-14.49,16.24H47.42c-8.52-.75-13.23-6.18-14.14-14.49q.17-59.19.35-118.38c1.11-9.96,8.14-13.38,17.28-14.49Z"/>
          <g>
            <path class="cls-1" d="M45.5,69.89c.2,6.15.67,5.8.7,6.11.44,5.69.9,11.34,2.1,16.94-.22,8.69,3.61,18.7,12.05,22.35,10.5,4.54,40.89,4.14,53.25,3.84,10.27-.25,31.6-.37,39.63-6.63,4.58-3.57,6.81-9.68,8.56-15.02q.35,1.05.7,2.1c-.38,2.44-.66,4.88-1.05,7.33-.65,0-.21.96-.35,1.75-.01.07-.07-.15-.35,1.4,0,.05-.15-.36-.35,1.05-.02.11,0,.23,0,.35-.55-.02-.28.51-.35,1.05-.2,1.48-.66,2.58-1.4,3.84-2.95,5.04-8.57,6.33-13.97,6.98-.02,0,.12.3-.35.35H58.42c-4.17-.46-6.67-1.7-9.08-5.24-4.53-11.61-2.85-25.28-3.84-36.32-.03-.33-.3-.36-.35-.7-.05-1.16.07-2.34,0-3.49-.19-3.04-1.06-8.06.35-8.03Z"/>
            <path class="cls-9" d="M42.36,141.12l1.05-.35c5.57,2.4,43.75.66,52.73.7,2.07,0,3.25.35,4.19.35,2.09,0,4.19,0,6.29,0,1.39,0,2.9-.34,4.19-.35,18.3-.09,36.78,1.36,55-.7,3.41-1.91,3.17-30.35,3.67-35.62h.35c-.08,6.42,1.08,36.24-6.11,37.71-5.73,1.17-101.19-.52-116.98,0-2.14-.53-2.52-.39-4.36-1.75Z"/>
            <path class="cls-39" d="M46.55,13.32c-7.25,3.61-6.86,8.66-7.33,16.24-1.41,22.46.37,52.78-1.05,76.47,1.62,6.42-.86,32.11,5.24,34.74l-1.05.35c-1.44-1.06-1.92-2.21-2.79-3.67-1.88-17-2.06-36.97-1.4-55.35.01-2.21-.01-4.42,0-6.63.06-9.75-.27-50.46,1.4-56.39,1.02-3.63,6.63-7.01,6.98-5.76Z"/>
            <path class="cls-42" d="M165.97,19.96c.66,2.65,1.57,17.02,1.75,21.13.52,12.48.59,46.09,0,58.31-.26,5.48-2.68,35.9-4.54,38.76-1.17,1.79-4.87,2.76-.35-.35,1.9-3.2,4.31-34.39,4.54-40.16.43-10.95.37-41.42,0-52.73,0-.06-.7-.98-.7-1.05-.18-4.9.02-21.07-.7-23.92Z"/>
            <path class="cls-22" d="M165.97,19.96c-1.19-4.71-7.69-7.76-12.05-8.38-4.72-.68-87.99-1.22-95.33-.7-2.66.19-6.41.44-8.9,1.4v-.35c2.27-.68,4.49-.99,6.81-1.4,18.65.77,86.67-1.07,98.47.7,5.54.83,9.6,3.12,11,8.73Z"/>
            <path class="cls-39" d="M169.81,105.16h-.35c-1.62-16.4.56-72.73-.7-82.23-.1-.76-1.04-2.68-1.05-3.84-6.38-9.28.01-3.44,1.4,1.75-.04,28.09,1.03,56.25.7,84.33Z"/>
            <path class="cls-39" d="M49.69,12.27c-5.02,1.93-7.06,7.15-7.68,12.05-1.54,12.13.33,41.25-1.4,56.04h-.35c1.38-12.89-1.08-53.52,2.1-61.63,1.21-3.1,4.28-5.08,4.19-5.41,1-.5,2.07-1.08,3.14-1.4v.35Z"/>
            <path class="cls-11" d="M165.62,69.89c-1.26-.31-.61,5.93-1.05,11.87-.12,1.6.19,3.58,0,5.06-.26,1.99-1.28,4.16-1.75,6.11-.03.11.03.24,0,.35-1.27-1.53.23-3.65.35-5.41.12-1.79-.06-3.62,0-5.41.2-5.71.6-15.8.35-20.95,2.03.79,2.03,5.99,2.1,8.38Z"/>
            <path class="cls-13" d="M100.67,14.72v.7c-8.65,0-37.08-.44-42.08.35-1.71.27-5.96,1.91-7.51,2.79,1.05-.86,2.33-2.03,3.67-2.44,6.46-2.01,36.59-1.37,45.92-1.4Z"/>
            <path class="cls-17" d="M127.91,15.42v-.7c9.53.23,28.51-.96,31.08,6.11l-.52.52c-4.35-6.38-21.43-5.67-30.55-5.94Z"/>
            <path class="cls-9" d="M144.32,123.67c-4.27.44-81.63.47-85.9,0h85.9Z"/>
            <path class="cls-36" d="M40.26,80.37h.35c.09,4.59-.13,9.2,0,13.79.14,5.03,2.52,35.67,3.14,38.76.28,1.42.84,2.85,1.4,4.19,4.01,3.55,4.75,4.89,1.22,2.27-2.11-1.56-2.9-5.76-3.32-8.21-1.93-11.26-2.75-38.49-2.79-50.81Z"/>
            <path class="cls-18" d="M49.34,118.43c-2.67-3.93-2.88-8.39-3.49-13.09-1-7.67-1.37-15.6-.35-23.22.99,11.04-.69,24.71,3.84,36.32Z"/>
            <path class="cls-24" d="M127.91,14.72v.7c-9.05-.26-18.18,0-27.24,0v-.7c9.05-.03,18.2-.22,27.24,0Z"/>
            <path class="cls-5" d="M144.67,123.32c5.39-.66,11.01-1.94,13.97-6.98-1.35,5.21-8.89,7.36-13.97,6.98Z"/>
            <path class="cls-10" d="M165.45,27.64c.06,6.27.87,12.6.35,18.86-.4-6.13-.84-12.6-.35-18.86Z"/>
            <path class="cls-32" d="M170.69,72.33c.29,4.15.29,8.77,0,12.92-.07-1.24-.64-13.29,0-12.92Z"/>
            <path class="cls-4" d="M165.62,69.89c.11,4-.37,8.55-.7,12.57l-.35-.7c.43-5.94-.21-12.18,1.05-11.87Z"/>
            <path class="cls-38" d="M164.92,82.46c-.66,8.15-1.58,9.57-1.75,10.82l-.35-.35c.47-1.95,1.49-4.12,1.75-6.11.19-1.48-.12-3.46,0-5.06l.35.7Z"/>
            <path class="cls-30" d="M38.17,75.48c-.01,2.21.01,4.42,0,6.63-1.09.2-1.09-6.84,0-6.63Z"/>
            <path class="cls-18" d="M163.18,93.29c-.27,2.04-.39,4.31-.7,6.29q-.35-1.05-.7-2.1c.44-1.34.71-2.82,1.05-4.19.03-.11-.03-.24,0-.35l.35.35Z"/>
            <path class="cls-18" d="M44.63,82.11c.61,7.65-.43,8.65-.17.17l.17-.17Z"/>
            <path class="cls-3" d="M45.15,81.41c-.11-.85-.92-2.61,0-3.49.07,1.16-.05,2.33,0,3.49Z"/>
            <path class="cls-13" d="M51.09,18.56c-.29.24-1.11,1.78-1.75,1.57.49-1.53,1.64-1.51,1.75-1.57Z"/>
            <g>
              <path class="cls-36" d="M54.06,126.11c33.11,1.02,66.25-1.12,99.34.87-21.26-1.87-83.27,1.41-97.25-.17-.11-.01-2.1-.43-2.1-.7Z"/>
              <path class="cls-39" d="M52.66,129.25c22.82.16,24.2,1.27.35.35-2.16.89-1.22,6.11.35,6.63,1.09.36,19.31-.87,22.87.17-3.54-.03-21.92.61-23.22.17-1.35-.45-2.99-5.83-.35-7.33Z"/>
              <path class="cls-22" d="M155.67,129.25c1.97,1.59,1.75,4.9.7,6.98-54.57.07-57.07-.79-.7-.35,1.69-.65.77-5.25,0-6.63Z"/>
              <path class="cls-17" d="M117.43,138.33s-.12.65.17.7c6.86,1.15,28.28-1.14,37.01.35h-40.16l1.22-1.05c.57.06,1.17-.04,1.75,0Z"/>
              <path class="cls-17" d="M51.96,139.03q21.39.09,42.78.17-21.04.26-42.08.52l-.7-.7Z"/>
              <path class="cls-39" d="M86.88,129.25c2.33-.06,8.45.07,4.89.7-2.89.51-14.66-.25-19.03-.17,4.71-.03,9.44-.4,14.14-.52Z"/>
              <path class="cls-36" d="M150.08,129.25c1.38-.05,5.77.13,2.1.7-3.28.51-14.92-.24-19.73-.17,5.89-.11,11.75-.29,17.63-.52Z"/>
              <path class="cls-43" d="M132.97,132.05q10.56.09,21.13.17-10.56.26-21.13.52v-.7Z"/>
              <path class="cls-17" d="M83.74,135.54c3.18-.14,6.43-.04,9.6.17l-15.89.52c1.97-.32,4.31-.61,6.29-.7Z"/>
              <path class="cls-17" d="M73.44,132.39c6.63-.16,13.26-.75,19.9-.17-6.63.3-13.27.2-19.9.17Z"/>
              <path class="cls-23" d="M113.77,129.25c1.18.14,16.42-.4,15.89.52-1.32-.01-16.65-.19-15.89-.52Z"/>
              <path class="cls-17" d="M73.44,132.39c-5.58.13-11.2,1.03-16.76-.17,5.59.16,11.17.15,16.76.17Z"/>
              <path class="cls-39" d="M113.77,132.05c2.12.4,16.38-.88,16.24.87q-8.12-.44-16.24-.87Z"/>
              <path class="cls-36" d="M110.8,128.9l-3.14-.35c.56-.53,3.47-.79,3.14.35Z"/>
              <path class="cls-22" d="M117.43,138.33c-.58-.04-1.17.06-1.75,0-2.14-.22-2.35-.86,1.75,0Z"/>
              <path class="cls-43" d="M111.5,139.38s-.79-.27,0-.35c.39.17,2.1-.23,2.1.17l-2.1.17Z"/>
              <path class="cls-17" d="M96.83,129.25l-1.4.35c.42-1.12.67-.28,1.4-.35Z"/>
            </g>
            <path class="cls-33" d="M161.08,108.65c.14-.78-.3-1.74.35-1.75-.1.65-.22,1.12-.35,1.75Z"/>
            <path class="cls-29" d="M160.73,110.05c.28-1.54.34-1.33.35-1.4-.11.49-.24.94-.35,1.4Z"/>
            <path class="cls-20" d="M160.04,112.49c.07-.53-.2-1.07.35-1.05-.03.55.16,1.07-.35,1.05Z"/>
            <path class="cls-29" d="M160.39,111.09c.2-1.4.34-.99.35-1.05-.1.44.24,1.05-.35,1.05Z"/>
            <path class="cls-37" d="M113.24,117.73l.35,1.4c-12.36.3-42.75.7-53.25-3.84-8.43-3.65-12.27-13.66-12.05-22.35,1.78,8.34,4.8,17.64,13.44,20.95,9.61,3.68,40.15,4.17,51.51,3.84Z"/>
            <path class="cls-6" d="M163.18,82.46c-.06,1.79.12,3.63,0,5.41-.12,1.77-1.62,3.89-.35,5.41-.34,1.37-.61,2.85-1.05,4.19-1.74,5.34-3.97,11.44-8.56,15.02-8.04,6.27-29.36,6.38-39.63,6.63l-.35-1.4c9.37-.27,31.77-1.3,38.93-6.63,7.2-5.36,10.69-23.21,10.3-31.95q.35,1.66.7,3.32Z"/>
            <g>
              <path class="cls-4" d="M98.58,131c-.63.89-2.26,2.37-2.44,3.32-.56,2.83.97,6.62,4.19,7.16v.35c-.94,0-2.12-.34-4.19-.35-1.47-3.69-.26-7.93-.7-11.87l1.4-.35c3.69-.37,3.27-.41,1.75,1.75Z"/>
              <path class="cls-27" d="M111.15,132.39c.17,2.18.55,4.08,0,6.29-.47-.16-.54-1.28-1.22-1.05-.39.13-.09,2.44-3.32,4.19-2.09,0-4.19,0-6.29,0v-.35c7.49,1.26,10.8-4.31,8.73-9.08h2.1Z"/>
              <path class="cls-25" d="M110.8,128.9c.64,1.07.26,2.33.35,3.49h-2.1c-.51-1.16-1.95-2.38-2.1-2.44.26-.41.5-1.21.7-1.4l3.14.35Z"/>
              <path class="cls-31" d="M111.15,138.68c.49.17.33.34.35.35-.79.08,0,.33,0,.35-.1.52-.72,1.44-.7,2.1-1.29,0-2.8.35-4.19.35,3.22-1.75,2.93-4.06,3.32-4.19.68-.23.75.89,1.22,1.05Z"/>
              <g>
                <path class="cls-5" d="M106.96,129.95c.15.07,1.59,1.28,2.1,2.44,2.07,4.77-1.24,10.34-8.73,9.08-3.22-.54-4.75-4.33-4.19-7.16.19-.95,1.81-2.43,2.44-3.32,2.18-1.78,5.89-2.19,8.38-1.05Z"/>
                <path class="cls-8" d="M101.9,131.7c7.58-1.44,6.65,7.79,2.1,8.73-6.66,1.38-7.65-7.68-2.1-8.73Z"/>
              </g>
            </g>
            <g>
              <path class="cls-34" d="M163.53,61.51c.25,5.15-.15,15.24-.35,20.95q-.35-1.66-.7-3.32c.39,8.74-3.1,26.59-10.3,31.95-7.17,5.34-29.56,6.36-38.93,6.63-11.35.33-41.9-.16-51.51-3.84-8.65-3.31-11.66-12.61-13.44-20.95-1.2-5.6-1.66-11.24-2.1-16.94-.02-.32-.5.04-.7-6.11-.39-12.19.97-40.15,12.75-47.14,8.58-5.1,52.67-4.44,64.6-3.84,9.68.49,26.23.39,32.65,8.56,5.18,6.6,7.62,25.55,8.03,34.05Z"/>
              <path class="cls-6" d="M128.96,107.6c16.33-2.84,20.29-3.47,23.74-20.43.16-.78-.43-.96-.35-1.4.03-.17.67-.53.7-.7,2.32-13.69,2.13-46.56-6.81-52.9-10.29-7.3-70.47-7.42-82.41-.35-14,8.29-11.19,59.7-3.14,69.14.8.94,5.63,4.37,6.81,4.89-13.85.47-15.19-35.73-14.67-45.57.41-7.71,3.24-26.14,10.65-30.2,11.82-6.48,74.67-6.94,83.81,1.05,8.97,7.84,9.77,42.8,6.11,58.49-3.85,16.51-8.11,16.29-24.44,17.98Z"/>
              <path class="cls-6" d="M163,75.83c.58,2.36-.37,3.02-.17.17l.17-.17Z"/>
              <g>
                <path class="cls-26" d="M128.96,107.6c-13.71,2.38-49.25,3.65-61.46-1.75-1.18-.52-6.01-3.95-6.81-4.89-8.05-9.43-10.86-60.85,3.14-69.14,11.94-7.07,72.12-6.95,82.41.35,8.94,6.34,9.13,39.21,6.81,52.9-.03.17-.67.53-.7.7-.08.44.51.62.35,1.4-3.45,16.95-7.42,17.59-23.74,20.43Z"/>
                <path class="cls-37" d="M59.47,81.76c.41.09.88-.17,1.05-.52,2.15-4.58,1.01-23.7-.7-29.68,1.62,5.07,5.95,5.18,8.9,8.56q7.07-14.84,14.14-29.68c1.46.01,6.33,0,6.63,1.57-3.72,13.55-11.24,25.59-16.76,38.41-1.31,3.04-7.74,22.16-9.08,23.05-1.55,1.03-3.95-10.36-4.19-11.7Z"/>
                <path class="cls-15" d="M82.87,30.43q-7.07,14.84-14.14,29.68c-2.96-3.37-7.28-3.49-8.9-8.56,1.71,5.98,2.85,25.1.7,29.68-.16.35-.63.62-1.05.52-2.21-12.42-.53-18.26,0-29.86.27-5.97-2.35-10.63,3.14-16.41,2.56-2.7,16.2-5.09,20.25-5.06Z"/>
              </g>
            </g>
          </g>
        </g>
      </g>
      <g>
        <path class="cls-21" d="M479.23,2.5h-59.04c-4.08,0-7.38,3.3-7.38,7.38s3.3,7.38,7.38,7.38h22.14v110.69c0,4.08,3.3,7.38,7.38,7.38h14.76c4.08,0,7.38-3.3,7.38-7.38V54.16c0-2.04-.83-3.88-2.16-5.22l-12.6-12.6h0s0-19.08,0-19.08h22.14c4.08,0,7.38-3.3,7.38-7.38s-3.3-7.38-7.38-7.38Z"/>
        <path class="cls-21" d="M665.56,2.5h-59.04c-1.94,0-3.84.79-5.22,2.16-1.37,1.37-2.16,3.28-2.16,5.22v118.07c0,1.94.79,3.84,2.16,5.22,1.37,1.37,3.27,2.16,5.22,2.16h59.04c1.94,0,3.84-.79,5.22-2.16,1.37-1.37,2.16-3.28,2.16-5.22V9.88c0-1.94-.79-3.84-2.16-5.22-1.37-1.37-3.27-2.16-5.22-2.16ZM658.18,120.58h-29.52V54.16c0-2.04-.83-3.88-2.16-5.22l-12.6-12.6h0s0-19.08,0-19.08h44.28v103.31Z"/>
        <path class="cls-21" d="M298.43,2.5h-59.04c-1.94,0-3.84.79-5.22,2.16-1.37,1.37-2.16,3.28-2.16,5.22v118.07c0,4.08,3.3,7.38,7.38,7.38h14.76c4.08,0,7.38-3.3,7.38-7.38v-36.9h14.76v36.9c0,1.94.79,3.84,2.16,5.22,1.37,1.37,3.27,2.16,5.22,2.16h14.76c4.08,0,7.38-3.3,7.38-7.38s-3.3-7.38-7.38-7.38h-7.38s0-29.52,0-29.52h7.38c1.94,0,3.84-.79,5.22-2.16s2.16-3.28,2.16-5.22V9.88c0-1.94-.79-3.84-2.16-5.22-1.37-1.37-3.27-2.16-5.22-2.16ZM291.05,76.3h-29.52v-22.14c0-2.04-.83-3.88-2.16-5.22l-12.6-12.6h0s0-19.08,0-19.08h44.28v59.04Z"/>
        <path class="cls-21" d="M569.63,2.5h-59.04c-1.94,0-3.84.79-5.22,2.16-1.37,1.37-2.16,3.28-2.16,5.22v118.07c0,4.08,3.3,7.38,7.38,7.38h14.76c4.08,0,7.38-3.3,7.38-7.38v-36.9h14.76v36.9c0,1.94.79,3.84,2.16,5.22s3.27,2.16,5.22,2.16h14.76c4.08,0,7.38-3.3,7.38-7.38s-3.3-7.38-7.38-7.38h-7.38s0-29.52,0-29.52h7.38c1.94,0,3.84-.79,5.22-2.16s2.16-3.28,2.16-5.22V9.88c0-1.94-.79-3.84-2.16-5.22-1.37-1.37-3.27-2.16-5.22-2.16ZM562.25,76.3h-29.52v-22.14c0-2.04-.83-3.88-2.16-5.22l-12.6-12.6h0s0-19.08,0-19.08h44.28v59.04Z"/>
        <path class="cls-21" d="M394.36,17.26c4.08,0,7.38-3.3,7.38-7.38s-3.3-7.38-7.38-7.38h-59.04c-1.94,0-3.84.79-5.22,2.16-1.37,1.37-2.16,3.27-2.16,5.22v118.07c0,1.94.79,3.84,2.16,5.22,1.37,1.37,3.27,2.16,5.22,2.16h59.04c4.08,0,7.38-3.3,7.38-7.38s-3.3-7.38-7.38-7.38h0s-36.9,0-36.9,0v-59.04h22.14c4.08,0,7.38-3.3,7.38-7.38s-3.3-7.38-7.38-7.38h0s-26.46,0-26.46,0l-10.44-10.44v-19.08h51.66Z"/>
      </g>
      <g>
        <path class="cls-26" d="M268.5,149.56h-32.44c-1.07,0-2.11.43-2.87,1.19-.75.75-1.19,1.8-1.19,2.87v64.87c0,1.07.43,2.11,1.19,2.87s1.8,1.19,2.87,1.19h32.44c1.07,0,2.11-.43,2.87-1.19.75-.76,1.19-1.8,1.19-2.87v-64.87c0-1.07-.43-2.11-1.19-2.87s-1.8-1.19-2.87-1.19ZM264.45,214.43h-16.22v-36.49c0-1.12-.45-2.13-1.19-2.87l-6.92-6.92h0s0-10.48,0-10.48h24.33v56.76Z"/>
        <path class="cls-26" d="M320.97,152.33c-.55-1.66-2.1-2.77-3.85-2.77h-24.33c-1.07,0-2.11.43-2.87,1.19s-1.19,1.8-1.19,2.87v64.87c0,1.07.43,2.11,1.19,2.87.75.75,1.8,1.19,2.87,1.19h32.44c1.07,0,2.11-.43,2.87-1.19.76-.75,1.19-1.8,1.19-2.87v-40.54c0-.45-.07-.86-.21-1.28l-8.11-24.33ZM321.18,214.43h-16.22s0-36.49,0-36.49c0-1.12-.45-2.13-1.19-2.87l-6.92-6.92v-10.48h17.35l6.98,20.93v35.83Z"/>
        <path class="cls-26" d="M377.7,152.33c-.55-1.66-2.1-2.77-3.85-2.77h-24.33c-1.07,0-2.11.43-2.87,1.19s-1.19,1.8-1.19,2.87v64.87c0,1.07.43,2.11,1.19,2.87.75.75,1.8,1.19,2.87,1.19h32.44c1.07,0,2.11-.43,2.87-1.19.75-.75,1.19-1.8,1.19-2.87v-40.54c0-.45-.07-.86-.21-1.28l-8.11-24.33ZM377.9,214.43h-16.22s0-36.49,0-36.49c0-1.12-.45-2.13-1.19-2.87l-6.92-6.92v-10.48h17.35l6.98,20.93v35.83Z"/>
        <path class="cls-26" d="M438.69,157.67c2.24,0,4.05-1.82,4.05-4.05s-1.82-4.05-4.05-4.05h-32.44c-2.24,0-4.05,1.82-4.05,4.05s1.82,4.05,4.05,4.05h12.16v56.76h-12.16c-2.24,0-4.05,1.82-4.05,4.05s1.82,4.05,4.05,4.05h16.22s0,0,0,0h8.11s0,0,0,0h8.11c2.24,0,4.05-1.82,4.05-4.05s-1.82-4.05-4.05-4.05h-4.05v-36.49c0-1.12-.45-2.13-1.19-2.87l-6.92-6.92v-10.48h12.16Z"/>
        <path class="cls-26" d="M552.15,157.67c2.24,0,4.05-1.82,4.05-4.05s-1.82-4.05-4.05-4.05h-32.44c-2.24,0-4.05,1.82-4.05,4.05s1.82,4.05,4.05,4.05h12.16v56.76h-12.16c-2.24,0-4.05,1.82-4.05,4.05s1.82,4.05,4.05,4.05h16.22s0,0,0,0h8.11s0,0,0,0h8.11c2.24,0,4.05-1.82,4.05-4.05s-1.82-4.05-4.05-4.05h-4.05v-36.49c0-1.12-.45-2.13-1.19-2.87l-6.92-6.92v-10.48h12.16Z"/>
        <path class="cls-26" d="M495.42,149.56h-32.44c-2.24,0-4.05,1.82-4.05,4.05s1.82,4.05,4.05,4.05h12.16v60.82c0,2.24,1.82,4.05,4.05,4.05h8.11c2.24,0,4.05-1.82,4.05-4.05v-40.55c0-1.12-.45-2.13-1.19-2.87l-6.92-6.92h0s0-10.48,0-10.48h12.16c2.24,0,4.05-1.82,4.05-4.05s-1.82-4.05-4.05-4.05Z"/>
        <path class="cls-26" d="M608.87,157.67c2.24,0,4.05-1.82,4.05-4.05s-1.82-4.05-4.05-4.05h-32.44c-1.07,0-2.11.43-2.87,1.19-.75.76-1.19,1.8-1.19,2.87v64.87c0,1.07.43,2.11,1.19,2.87.75.75,1.8,1.19,2.87,1.19h32.44c2.24,0,4.05-1.82,4.05-4.05s-1.82-4.05-4.05-4.05h0s-20.27,0-20.27,0v-32.44h12.16c2.24,0,4.05-1.82,4.05-4.05s-1.82-4.05-4.05-4.05h0s-14.54,0-14.54,0l-5.73-5.73v-10.48h28.38Z"/>
        <path class="cls-26" d="M665.6,173.88c2.24,0,4.05-1.82,4.05-4.05v-16.22c0-1.07-.43-2.11-1.19-2.87-.76-.75-1.8-1.19-2.87-1.19h-32.44c-1.07,0-2.11.43-2.87,1.19-.75.75-1.19,1.8-1.19,2.87v40.55c0,1.07.43,2.11,1.19,2.87.76.76,1.8,1.19,2.87,1.19h28.38v16.22h-28.38c-2.24,0-4.05,1.82-4.05,4.05s1.82,4.05,4.05,4.05h0s32.44,0,32.44,0c1.07,0,2.11-.43,2.87-1.19.76-.75,1.19-1.8,1.19-2.87v-24.33c0-1.07-.43-2.11-1.19-2.87-.76-.76-1.8-1.19-2.87-1.19h-20.27v-32.44h16.22v12.16c0,2.24,1.82,4.05,4.05,4.05Z"/>
      </g>
    </g>
  </g>
</svg>